<?xml version="1.0" encoding="utf-8"?>
<!-- Generator: Adobe Illustrator 23.0.0, SVG Export Plug-In . SVG Version: 6.00 Build 0)  -->
<svg version="1.1" id="Layer_1" xmlns="http://www.w3.org/2000/svg" xmlns:xlink="http://www.w3.org/1999/xlink" x="0px" y="0px"
	 viewBox="0 0 1024 1024" style="enable-background:new 0 0 1024 1024;" xml:space="preserve">
<style type="text/css">
	.st0{fill:url(#SVGID_1_);}
	.st1{fill:url(#SVGID_2_);}
	.st2{fill:url(#SVGID_3_);}
	.st3{fill:url(#SVGID_4_);}
	.st4{fill:url(#SVGID_5_);}
	.st5{fill:#FFFFFF;}
	.st6{fill:url(#SVGID_6_);}
	.st7{fill:url(#SVGID_7_);}
	.st8{fill:url(#SVGID_8_);}
</style>
<g>
	<g>
		<path d="M171.1,722.6c0,2.7-0.5,5.3-1.6,7.6c-1,2.3-2.5,4.4-4.3,6.2c-1.8,1.8-3.9,3.2-6.4,4.2c-2.5,1-5.1,1.5-7.8,1.5
			c-2.7,0-5.3-0.5-7.8-1.5c-2.5-1-4.6-2.4-6.4-4.2c-1.8-1.8-3.2-3.8-4.3-6.2c-1-2.3-1.6-4.9-1.6-7.6v-29.9h7.3v29.9
			c0,1.7,0.3,3.3,1,4.8c0.6,1.5,1.6,2.8,2.7,4c1.2,1.2,2.5,2.1,4.1,2.7c1.6,0.7,3.2,1,5,1c1.7,0,3.4-0.3,4.9-1
			c1.5-0.6,2.9-1.5,4.1-2.7c1.2-1.2,2.1-2.5,2.8-4c0.7-1.5,1-3.1,1-4.8v-29.9h7.3V722.6z"/>
		<path d="M209.4,707.8c-1.2-3.5-2.8-5.9-5-7.2c-2.2-1.3-4.7-2-7.6-2c-3,0-5.5,0.6-7.4,1.9c-1.9,1.3-2.8,2.9-2.8,5
			c0,1.3,0.7,2.2,2.2,2.8c1.4,0.6,3.3,1.1,5.5,1.5c2.2,0.4,4.6,0.9,7.1,1.4c2.5,0.5,4.9,1.3,7.1,2.3c2.2,1,4,2.4,5.5,4.3
			c1.4,1.8,2.2,4.3,2.2,7.3c0,2.8-0.5,5.3-1.6,7.4c-1.1,2.1-2.5,3.9-4.3,5.4c-1.8,1.4-3.8,2.5-6,3.3c-2.2,0.8-4.5,1.1-6.7,1.1
			c-2.2,0-4.3-0.3-6.5-1c-2.2-0.7-4.2-1.7-6-3.1c-1.8-1.4-3.3-3.2-4.5-5.4c-1.2-2.2-1.9-4.8-2.1-7.7l6.9-2.4
			c0.2,2.3,0.7,4.3,1.4,5.9c0.7,1.6,1.6,2.9,2.7,4c1.1,1,2.3,1.7,3.7,2.2c1.4,0.4,2.8,0.6,4.3,0.6c3.2,0,6-0.9,8.2-2.7
			c2.2-1.8,3.3-4.3,3.3-7.5c0-2-0.8-3.5-2.3-4.5c-1.5-1-3.4-1.8-5.7-2.3c-1.8-0.4-3.9-0.8-6.4-1.2c-2.5-0.4-4.8-1-7-1.8
			c-2.2-0.8-4.1-2-5.6-3.5c-1.6-1.5-2.3-3.5-2.3-6c0-2.3,0.5-4.3,1.5-6.1c1-1.8,2.3-3.3,4-4.4c1.6-1.2,3.5-2.1,5.5-2.7
			c2.1-0.6,4.1-0.9,6.2-0.9c2,0,3.9,0.2,5.9,0.7c2,0.5,3.9,1.2,5.6,2.3c1.8,1.1,3.3,2.5,4.7,4.2c1.4,1.7,2.5,3.9,3.2,6.4
			L209.4,707.8z"/>
		<path d="M178.1,685.1v-6.8h37.3v6.8H178.1z"/>
		<path d="M264.1,716.4v6.2c0,2.7-0.5,5.3-1.6,7.6c-1,2.3-2.5,4.4-4.3,6.2c-1.8,1.8-3.9,3.2-6.4,4.2c-2.5,1-5.1,1.5-7.8,1.5
			c-2.7,0-5.3-0.5-7.8-1.5c-2.5-1-4.6-2.4-6.4-4.2c-1.8-1.8-3.2-3.8-4.3-6.2c-1-2.3-1.6-4.9-1.6-7.6v-29.9h7.3v29.9
			c0,1.7,0.3,3.4,1,4.9c0.6,1.5,1.6,2.8,2.7,4c1.2,1.1,2.5,2,4.1,2.7c1.6,0.7,3.2,1,5,1c1.7,0,3.4-0.3,4.9-1
			c1.5-0.6,2.9-1.5,4.1-2.7c1.2-1.1,2.1-2.4,2.8-4c0.7-1.5,1-3.1,1-4.9v-6.2h-6.1c-2.2,0-4-0.7-5.4-2.2c-1.4-1.4-2.2-3.2-2.2-5.2
			v-4.4h6.9v4.2c0,0.4,0.2,0.6,0.6,0.6h6.1v-16.8h7.3v16.8h4.6v6.9H264.1z"/>
		<path d="M244.5,685.2c-2.1,0-3.9-0.8-5.4-2.3c-1.5-1.5-2.3-3.4-2.3-5.5V673h6.8v4.4c0,0.6,0.3,0.9,0.9,0.9h24v6.8L244.5,685.2z"/>
		<path d="M313,741.5h-7.3v-31.8c0-1.7-0.3-3.3-0.9-4.6c-0.6-1.3-1.4-2.5-2.5-3.4c-1-0.9-2.2-1.6-3.6-2.1c-1.3-0.5-2.7-0.7-4.2-0.7
			c-1.7,0-3.5,0.4-5.2,1.1c-1.7,0.8-3.3,1.8-4.6,3.1c-1.3,1.3-2.4,2.8-3.3,4.6c-0.9,1.7-1.3,3.6-1.3,5.5v28.3h-7.3v-48.7h7.3v6.3
			c2-2.2,4.3-4,6.9-5.3c2.6-1.3,5.1-1.9,7.6-1.9c2.3,0,4.6,0.4,6.8,1.1c2.2,0.8,4.1,1.9,5.8,3.4c1.7,1.5,3.1,3.3,4.1,5.6
			c1,2.2,1.6,4.8,1.6,7.7V741.5z"/>
		<path d="M384.2,699.5c2.4,3,3.6,6.6,3.6,10.8v31.1h-7.1v-13.5c0-1.9-0.4-3.5-1.1-4.9c-0.7-1.4-1.7-2.6-2.9-3.5
			c-1.2-0.9-2.6-1.6-4.1-2.1s-3.2-0.7-4.8-0.7c-1.7,0-3.2,0.2-4.7,0.7c-1.5,0.5-2.8,1.2-4,2.2c-1.2,1-2.1,2.2-2.8,3.6
			c-0.7,1.4-1,3-1,4.8c0,1.7,0.4,3.4,1.3,5c0.9,1.6,2.3,3.2,4.3,4.8l-5,5.2c-5.3-4.2-7.9-9.2-7.9-14.9c0-2.8,0.6-5.4,1.7-7.6
			c1.1-2.3,2.6-4.2,4.4-5.8c1.8-1.6,3.9-2.8,6.3-3.7c2.3-0.9,4.8-1.3,7.3-1.3c2.2,0,4.5,0.3,6.7,1c2.2,0.6,4.3,1.7,6.2,3.1v-3.2
			c0-1.8-0.4-3.4-1.1-4.8c-0.8-1.4-1.8-2.6-3-3.5c-1.2-0.9-2.6-1.7-4.2-2.2c-1.6-0.5-3.2-0.8-4.8-0.8c-3,0-5.8,0.8-8.2,2.5
			c-2.4,1.7-3.9,4.5-4.5,8.4h-7.3c0.3-3.2,1.1-5.9,2.3-8.2c1.3-2.3,2.8-4.1,4.7-5.6c1.8-1.4,3.9-2.5,6.1-3.2c2.2-0.7,4.5-1,6.8-1
			c3.9,0,7.5,0.9,10.9,2.7l6.1-6.6l5.6,4.9L384.2,699.5z"/>
		<path d="M432,741.5v-31.6c0-2.1-0.5-4-1.4-5.6c-0.9-1.7-2.2-3-3.8-4l-8.3,6.8l-8.4-6.9c-2.2,1.4-4.1,3.6-5.7,6.6
			c-1.6,3-2.3,6.7-2.3,11.3c0,2.5,0.3,4.7,0.9,6.8c0.6,2.1,1.4,3.8,2.4,5.4c1,1.5,2.3,2.7,3.8,3.6c1.5,0.9,3.2,1.3,5,1.3
			c0.8,0,1.6-0.2,2.4-0.6c0.8-0.4,1.8-1.2,3-2.4l5.2,5c-3.5,3.3-7.1,5-10.6,5c-3.2,0-6-0.6-8.4-1.8c-2.4-1.2-4.4-2.9-6.1-5.1
			c-1.6-2.2-2.9-4.7-3.7-7.6c-0.8-2.9-1.2-6-1.2-9.4c0-7,1.5-12.7,4.6-17c3-4.3,7-7.4,11.8-9.1l7.4,6.1l7.4-6.1
			c4.1,1.5,7.4,3.8,9.7,6.8c2.4,3,3.6,6.7,3.6,11v31.8H432z"/>
		<path d="M476.1,741.5h-7.1v-30.9c0-3.8-0.9-6.6-2.8-8.7c-1.8-2-4.6-3-8.3-3c-1.9,0-3.5,0.3-5,0.9c-1.4,0.6-3,1.7-4.6,3.4l-5-5
			c2.3-2.2,4.6-3.7,6.9-4.7c2.3-0.9,4.9-1.4,7.7-1.4c3.1,0,5.8,0.5,8.1,1.4c2.3,0.9,4.2,2.2,5.6,3.8c1.5,1.6,2.6,3.5,3.3,5.6
			c0.7,2.1,1.1,4.4,1.1,6.8V741.5z"/>
		<path d="M514.3,707.8c-1.2-3.5-2.8-5.9-5-7.2c-2.2-1.3-4.7-2-7.6-2c-3,0-5.5,0.6-7.4,1.9c-1.9,1.3-2.8,2.9-2.8,5
			c0,1.3,0.7,2.2,2.2,2.8c1.4,0.6,3.3,1.1,5.5,1.5c2.2,0.4,4.6,0.9,7.1,1.4c2.5,0.5,4.9,1.3,7.1,2.3c2.2,1,4,2.4,5.5,4.3
			c1.4,1.8,2.2,4.3,2.2,7.3c0,2.8-0.5,5.3-1.6,7.4c-1.1,2.1-2.5,3.9-4.3,5.4c-1.8,1.4-3.8,2.5-6,3.3c-2.2,0.8-4.5,1.1-6.7,1.1
			c-2.2,0-4.3-0.3-6.5-1c-2.2-0.7-4.2-1.7-6-3.1c-1.8-1.4-3.3-3.2-4.5-5.4c-1.2-2.2-1.9-4.8-2.1-7.7l6.9-2.4
			c0.2,2.3,0.7,4.3,1.4,5.9c0.7,1.6,1.6,2.9,2.7,4c1.1,1,2.3,1.7,3.7,2.2c1.4,0.4,2.8,0.6,4.3,0.6c3.2,0,6-0.9,8.2-2.7
			c2.2-1.8,3.3-4.3,3.3-7.5c0-2-0.8-3.5-2.3-4.5c-1.5-1-3.4-1.8-5.7-2.3c-1.8-0.4-3.9-0.8-6.4-1.2c-2.5-0.4-4.8-1-7-1.8
			c-2.2-0.8-4.1-2-5.6-3.5c-1.6-1.5-2.3-3.5-2.3-6c0-2.3,0.5-4.3,1.5-6.1c1-1.8,2.3-3.3,4-4.4c1.6-1.2,3.5-2.1,5.5-2.7
			c2.1-0.6,4.1-0.9,6.2-0.9c2,0,3.9,0.2,5.9,0.7c2,0.5,3.9,1.2,5.6,2.3c1.8,1.1,3.3,2.5,4.7,4.2c1.4,1.7,2.5,3.9,3.2,6.4
			L514.3,707.8z"/>
		<path d="M512.9,679.3c-0.1,0-0.3,0.1-0.6,0.2c-0.3,0.1-0.4,0.4-0.4,0.8c0,0.3,0.1,0.5,0.3,0.7c0.2,0.2,0.7,0.7,1.4,1.5l-4.6,4.6
			c-1.4-1.3-2.3-2.5-2.9-3.5c-0.5-1-0.8-2.1-0.8-3.4c0-2.4,0.7-4.2,2.1-5.5c1.4-1.3,3.2-2,5.5-2h9.2v6.6H512.9z"/>
		<path d="M569,741.5h-7.3v-31.8c0-1.7-0.3-3.3-0.9-4.6c-0.6-1.3-1.4-2.5-2.5-3.4c-1-0.9-2.2-1.6-3.6-2.1c-1.3-0.5-2.7-0.7-4.2-0.7
			c-1.7,0-3.5,0.4-5.2,1.1c-1.7,0.8-3.3,1.8-4.6,3.1c-1.3,1.3-2.4,2.8-3.3,4.6c-0.9,1.7-1.3,3.6-1.3,5.5v28.3H529v-48.7h7.3v6.3
			c2-2.2,4.3-4,6.9-5.3c2.6-1.3,5.1-1.9,7.6-1.9c2.3,0,4.6,0.4,6.8,1.1c2.2,0.8,4.1,1.9,5.8,3.4c1.7,1.5,3.1,3.3,4.1,5.6
			c1,2.2,1.6,4.8,1.6,7.7V741.5z"/>
		<path d="M579.3,741.5v-48.7h7.3v48.7H579.3z"/>
		<path d="M627.5,703c0.9,0.8,1.6,1.9,2.2,3.4c0.6,1.5,0.9,3,0.9,4.7v15.2c0,2.2-0.4,4.2-1.3,6.2c-0.9,2-2,3.6-3.5,5.1
			c-1.4,1.4-3.2,2.6-5.1,3.4c-2,0.8-4.1,1.2-6.3,1.2c-2.3,0-4.5-0.4-6.4-1.2c-2-0.8-3.7-2-5.1-3.4c-1.4-1.4-2.6-3.1-3.5-5.1
			c-0.9-2-1.3-4-1.3-6.2c0-2.2,0.3-4.1,0.8-5.6c0.5-1.5,1.3-2.8,2.3-3.9c1-1.1,2.1-2.1,3.4-3c1.3-0.9,2.7-1.9,4.3-3
			c1.2-0.8,2.1-1.6,2.7-2.5c0.7-0.9,1-2,1-3.5c0-2-0.7-3.6-2.2-4.9l-6.4,5.5l-10.5-8.8l4.3-4.9l6,4.9l5.9-5c2.6,1,4.7,2.4,6.3,4.1
			c1.6,1.7,2.7,3.7,3.2,5.9l12.5-13.5l5.4,4.4L627.5,703z M619.6,704.9c0,2.3-0.4,4.2-1.1,5.6c-0.7,1.4-1.6,2.7-2.7,3.7
			c-1,1-2.2,1.9-3.5,2.7c-1.3,0.8-2.4,1.6-3.5,2.4c-1,0.8-1.9,1.8-2.7,2.9c-0.7,1.1-1.1,2.5-1.1,4.2c0,2.5,0.9,4.6,2.7,6.3
			c1.8,1.8,4,2.7,6.6,2.7c1.3,0,2.5-0.2,3.6-0.7c1.1-0.5,2-1.1,2.9-2c0.8-0.8,1.5-1.8,2-2.9c0.5-1.1,0.7-2.2,0.7-3.5v-15.1
			c0-1.3-0.3-2.5-0.9-3.7c-0.6-1.2-1.6-2.4-3.1-3.7C619.6,704.1,619.6,704.4,619.6,704.9z"/>
		<path d="M687.9,728.5c0,1.9-0.4,3.6-1.1,5.3c-0.7,1.6-1.7,3.1-3,4.3c-1.3,1.2-2.7,2.2-4.4,2.9c-1.7,0.7-3.5,1.1-5.5,1.1
			c-2,0-3.9-0.4-5.7-1.2c-1.8-0.8-3.3-1.9-4.6-3.3c-1.2,1.4-2.7,2.5-4.5,3.3c-1.8,0.8-3.7,1.2-5.8,1.2c-1.9,0-3.7-0.4-5.4-1.1
			c-1.7-0.7-3.2-1.7-4.4-2.9c-1.3-1.2-2.3-2.7-3-4.3s-1.1-3.4-1.1-5.3v-35.7h7.3v35.7c0,1.8,0.6,3.3,1.9,4.6
			c1.3,1.3,2.8,1.9,4.7,1.9c1.9,0,3.5-0.6,4.8-1.9c1.3-1.3,2-2.8,2-4.6v-35.7h7.3v35.7c0,1.8,0.6,3.3,1.9,4.6
			c1.3,1.3,2.8,1.9,4.7,1.9c1.9,0,3.5-0.6,4.8-1.9c1.3-1.3,2-2.8,2-4.6V673h7.3V728.5z"/>
		<path d="M759.5,711c0,2.1-0.4,4.2-1.2,6.4l-9,24h-7.6l-10.8-30.9h7.6l7.1,20.5l5.7-15.9c0.6-1.5,0.9-2.9,0.9-4.1
			c0-1.6-0.3-3.1-1-4.6c-0.7-1.4-1.5-2.7-2.7-3.8c-1.1-1.1-2.4-1.9-3.9-2.5c-1.5-0.6-3.1-0.9-4.7-0.9c-3,0-5.7,1-8,3
			c-2.3,2-3.7,4.8-4.2,8.5h-7.3c0.3-2.8,1-5.4,2.1-7.6c1.1-2.3,2.5-4.2,4.2-5.9c1.7-1.6,3.7-2.9,5.9-3.7c2.2-0.9,4.6-1.3,7.1-1.3
			c2.7,0,5.2,0.5,7.6,1.5c2.4,1,4.5,2.3,6.2,4c1.8,1.7,3.2,3.7,4.2,6C759,706,759.5,708.4,759.5,711z"/>
		<path d="M763.6,679.2c0,2.1-0.8,3.9-2.3,5.4c-1.5,1.5-3.4,2.3-5.5,2.3c-2.2,0-4-0.8-5.5-2.3c-1.5-1.5-2.3-3.3-2.3-5.4
			c0-2.2,0.8-4,2.3-5.5c1.5-1.5,3.4-2.3,5.5-2.3c2.2,0,4,0.8,5.5,2.3C762.8,675.2,763.6,677,763.6,679.2z M758.3,679.2
			c0-0.7-0.2-1.3-0.7-1.8c-0.5-0.5-1.1-0.7-1.8-0.7c-0.7,0-1.3,0.2-1.8,0.7c-0.5,0.5-0.8,1.1-0.8,1.8c0,0.7,0.3,1.3,0.8,1.8
			c0.5,0.5,1.1,0.8,1.8,0.8c0.7,0,1.3-0.3,1.8-0.8C758.1,680.5,758.3,679.9,758.3,679.2z M796.3,741.5h-7.3v-30.9
			c0-3.8-0.9-6.6-2.8-8.7c-1.8-2-4.6-3-8.3-3c-1.8,0-3.4,0.3-4.9,0.9c-1.4,0.6-3,1.7-4.6,3.4l-5-5c2.2-2.2,4.5-3.7,6.8-4.7
			c2.3-0.9,4.9-1.4,7.8-1.4c3.1,0,5.8,0.5,8.1,1.4c2.3,0.9,4.2,2.2,5.6,3.8c1.5,1.6,2.6,3.5,3.3,5.6c0.7,2.1,1.1,4.4,1.1,6.8V741.5z
			"/>
		<path d="M846.1,741.5h-7.3v-28.1c0-4.3-1.5-7.8-4.4-10.5c-2.9-2.6-6.7-4-11.2-4c-2.4,0-4.7,0.6-6.9,1.7c-2.2,1.2-4,2.6-5.5,4.3
			l3.2,3.6v32.8h-7.3V711l-5-5.4c2.3-4.1,5.3-7.4,9.1-9.9c3.8-2.5,7.8-3.7,12.2-3.7c3.3,0,6.4,0.5,9.2,1.6c2.8,1,5.2,2.5,7.3,4.4
			c2,1.9,3.6,4.2,4.7,6.8c1.1,2.6,1.7,5.5,1.7,8.6V741.5z"/>
		<path d="M826.4,685.2c-2.1,0-3.9-0.8-5.4-2.3c-1.5-1.5-2.3-3.4-2.3-5.5V673h6.8v4.4c0,0.6,0.3,0.9,0.9,0.9h24.1v6.8L826.4,685.2z"
			/>
		<path d="M889.9,741.5V711c0-2.6-0.7-4.8-2.2-6.7c-1.4-1.9-3.3-3.3-5.5-4.2s-4.6-1.3-7.1-1.1c-2.5,0.1-4.9,0.9-7.1,2.3
			c-2.2,1.4-4,3.5-5.5,6.3c-1.4,2.8-2.2,6.3-2.2,10.6c0,2.4,0.3,4.6,0.9,6.7c0.6,2.1,1.4,3.8,2.5,5.4c1.1,1.5,2.4,2.7,3.9,3.5
			c1.5,0.8,3.2,1.2,5.1,1.2c0.9,0,1.8-0.2,2.5-0.6c0.8-0.4,1.8-1.2,3.1-2.3l5.2,5c-1.9,1.7-3.7,2.9-5.4,3.7s-3.5,1.2-5.4,1.2
			c-3.2,0-6.1-0.6-8.6-1.8c-2.5-1.2-4.5-2.9-6.2-5.1c-1.7-2.2-2.9-4.7-3.7-7.6c-0.8-2.9-1.2-6-1.2-9.3c0-4.6,0.7-8.5,2.1-11.8
			c1.4-3.3,3.2-6,5.4-8.1c2.2-2.1,4.8-3.6,7.6-4.7c2.8-1,5.7-1.5,8.6-1.5c2.6,0,5.1,0.4,7.6,1.3c2.5,0.9,4.6,2.1,6.6,3.7
			c1.9,1.6,3.5,3.6,4.7,5.9c1.2,2.3,1.8,5,1.8,7.9v30.7H889.9z"/>
	</g>
	<g>
		<path d="M231.2,798.7c0,1.8-0.4,3.4-1.1,4.9c-0.7,1.5-1.7,2.8-2.9,3.9c-1.2,1.1-2.6,1.9-4.2,2.6c-1.6,0.6-3.2,0.9-4.9,0.9
			c-2.9,0-5.4-0.9-7.6-2.6c-2.2-1.8-3.9-4.3-5.2-7.7l4.7-2.2c1.1,2.7,2.3,4.7,3.6,5.8c1.3,1.1,2.8,1.7,4.6,1.7c1,0,2-0.2,2.9-0.6
			c0.9-0.4,1.7-0.9,2.4-1.6c0.7-0.7,1.3-1.5,1.7-2.4c0.4-0.9,0.6-1.9,0.6-2.9c0-0.8-0.2-1.5-0.7-2.2c-0.5-0.6-1-1.2-1.7-1.7
			c-0.7-0.5-1.4-1-2.2-1.3c-0.8-0.4-1.5-0.7-2.1-1.1c-1.3-0.7-2.6-1.3-4-2c-1.3-0.7-2.5-1.4-3.6-2.3c-1.1-0.8-2-1.8-2.7-3
			c-0.7-1.2-1-2.6-1-4.3c0-1.6,0.3-3,0.8-4.4c0.5-1.3,1.3-2.5,2.3-3.5c1-1,2.1-1.7,3.5-2.3c1.3-0.6,2.8-0.8,4.5-0.8
			c2.1,0,4.1,0.5,6,1.6c1.9,1.1,3.6,2.9,5,5.3l-4,3.3c-1.3-1.9-2.5-3.3-3.6-4c-1.1-0.7-2.3-1.1-3.6-1.1c-1.6,0-2.9,0.6-4,1.7
			c-1.1,1.1-1.6,2.5-1.6,4.1c0,0.8,0.2,1.4,0.6,2c0.4,0.6,0.9,1.1,1.5,1.5c0.6,0.5,1.3,0.9,1.9,1.2c0.7,0.3,1.3,0.6,1.9,1l7.1,3.7
			c1.6,1,2.9,2.2,3.7,3.7C230.8,795,231.2,796.8,231.2,798.7z"/>
		<path d="M255,775.3v35.2h-5.3v-35.2h-9.7v-5.1h24.7v5.1H255z"/>
		<path d="M300,810.5l-5-12.4h-14.3l-5,12.4h-5.6l16.3-40.3h3.1l16.1,40.3H300z M287.9,780.3l-5.2,12.7H293L287.9,780.3z"/>
		<path d="M334.5,810.5l-11.8-17.4h-1.1v17.4h-5.3v-40.3h7.9c1.5,0,3.1,0.1,4.7,0.3c1.6,0.2,3.2,0.8,4.7,1.9
			c1.6,1.1,2.7,2.5,3.3,4.1c0.6,1.6,1,3.3,1,5.1c0,3.2-0.9,5.7-2.6,7.5c-1.7,1.8-4,2.9-6.8,3.4l12.3,18H334.5z M332.6,781.5
			c0-1.2-0.3-2.3-0.8-3.2c-0.5-1-1.3-1.7-2.3-2.2c-0.7-0.4-1.5-0.6-2.3-0.6c-0.8-0.1-1.7-0.1-2.5-0.1h-3.1l-0.1,12.4h3.5
			c1.1,0,2.1-0.1,3-0.3c0.9-0.2,1.7-0.6,2.4-1.3c0.7-0.6,1.2-1.3,1.6-2.1C332.4,783.2,332.6,782.4,332.6,781.5z"/>
		<path d="M363.5,775.3v35.2h-5.3v-35.2h-9.7v-5.1h24.7v5.1H363.5z"/>
		<path d="M407.8,798.7c0,1.8-0.4,3.4-1.1,4.9c-0.7,1.5-1.7,2.8-2.9,3.9c-1.2,1.1-2.6,1.9-4.2,2.6c-1.6,0.6-3.2,0.9-4.9,0.9
			c-2.9,0-5.4-0.9-7.6-2.6c-2.2-1.8-3.9-4.3-5.2-7.7l4.7-2.2c1.1,2.7,2.3,4.7,3.6,5.8c1.3,1.1,2.8,1.7,4.6,1.7c1,0,2-0.2,2.9-0.6
			c0.9-0.4,1.7-0.9,2.4-1.6c0.7-0.7,1.3-1.5,1.7-2.4c0.4-0.9,0.6-1.9,0.6-2.9c0-0.8-0.2-1.5-0.7-2.2c-0.5-0.6-1-1.2-1.7-1.7
			c-0.7-0.5-1.4-1-2.2-1.3c-0.8-0.4-1.5-0.7-2.1-1.1c-1.3-0.7-2.6-1.3-4-2c-1.3-0.7-2.5-1.4-3.6-2.3c-1.1-0.8-2-1.8-2.7-3
			c-0.7-1.2-1-2.6-1-4.3c0-1.6,0.3-3,0.8-4.4c0.5-1.3,1.3-2.5,2.3-3.5c1-1,2.1-1.7,3.5-2.3c1.3-0.6,2.8-0.8,4.5-0.8
			c2.1,0,4.1,0.5,6,1.6c1.9,1.1,3.6,2.9,5,5.3l-4,3.3c-1.3-1.9-2.5-3.3-3.6-4c-1.1-0.7-2.3-1.1-3.6-1.1c-1.6,0-2.9,0.6-4,1.7
			c-1.1,1.1-1.6,2.5-1.6,4.1c0,0.8,0.2,1.4,0.6,2c0.4,0.6,0.9,1.1,1.5,1.5c0.6,0.5,1.3,0.9,1.9,1.2c0.7,0.3,1.3,0.6,1.9,1l7.1,3.7
			c1.6,1,2.9,2.2,3.7,3.7C407.4,795,407.8,796.8,407.8,798.7z"/>
		<path d="M446.5,810.5l-5-12.4h-14.3l-5,12.4h-5.6l16.3-40.3h3.1l16.1,40.3H446.5z M434.4,780.3l-5.2,12.7h10.2L434.4,780.3z"/>
		<path d="M468.1,775.3v10.8h12.7v5.1h-12.7v19.3h-5.3v-40.3H481v5.1H468.1z"/>
		<path d="M492.8,810.5v-40.3h20.8v5.1h-15.5v10.8h15v5.1h-15v14.3h15.5v5H492.8z"/>
		<path d="M584.6,806.6c-2.3,1.7-4.4,2.8-6.4,3.5c-2,0.6-4.2,1-6.5,1c-2.8,0-5.5-0.5-8-1.6c-2.5-1.1-4.7-2.6-6.6-4.4
			c-1.9-1.9-3.4-4-4.5-6.5c-1.1-2.5-1.7-5.2-1.7-8c0-2.9,0.6-5.5,1.7-8.1c1.1-2.5,2.6-4.7,4.5-6.6c1.9-1.9,4.1-3.4,6.6-4.5
			c2.5-1.1,5.2-1.6,8.1-1.6c2.1,0,4.2,0.3,6.3,1c2.1,0.6,4.3,1.8,6.6,3.6l-2.8,4.2c-2-1.5-3.9-2.5-5.5-2.9c-1.7-0.4-3.2-0.6-4.7-0.6
			c-2.1,0-4.1,0.4-6,1.3c-1.9,0.9-3.5,2-4.9,3.5c-1.4,1.5-2.5,3.1-3.3,5c-0.8,1.9-1.2,3.9-1.2,6.1c0,2,0.4,3.9,1.3,5.8
			c0.8,1.9,2,3.5,3.4,4.9c1.4,1.4,3.1,2.5,4.9,3.4c1.9,0.9,3.8,1.3,5.8,1.3c1.5,0,3-0.2,4.7-0.7c1.7-0.5,3.5-1.5,5.5-3L584.6,806.6z
			"/>
		<path d="M635.8,790.3c0,2.9-0.5,5.5-1.6,8.1c-1.1,2.5-2.6,4.7-4.5,6.6c-1.9,1.9-4.1,3.3-6.6,4.4c-2.5,1.1-5.2,1.6-8,1.6
			c-2.9,0-5.5-0.5-8.1-1.6c-2.5-1.1-4.7-2.6-6.6-4.4c-1.9-1.9-3.4-4-4.5-6.6c-1.1-2.5-1.6-5.2-1.6-8.1c0-2.8,0.5-5.5,1.6-8
			c1.1-2.5,2.6-4.7,4.5-6.6s4.1-3.4,6.6-4.5c2.5-1.1,5.2-1.6,8.1-1.6c2.8,0,5.5,0.5,8,1.6c2.5,1.1,4.7,2.6,6.6,4.5
			c1.9,1.9,3.4,4.1,4.5,6.6C635.2,784.9,635.8,787.5,635.8,790.3z M630.4,790.3c0-2.1-0.4-4.1-1.2-6c-0.8-1.9-1.9-3.5-3.4-4.9
			c-1.4-1.4-3.1-2.5-4.9-3.4c-1.9-0.8-3.8-1.3-5.9-1.3c-2.1,0-4.1,0.4-6,1.3c-1.9,0.8-3.5,2-4.9,3.4c-1.4,1.4-2.5,3-3.3,4.9
			c-0.8,1.9-1.2,3.9-1.2,6c0,2.1,0.4,4.1,1.2,6c0.8,1.9,1.9,3.5,3.3,5c1.4,1.4,3,2.6,4.9,3.4c1.9,0.8,3.9,1.3,6,1.3
			c2.1,0,4.1-0.4,5.9-1.3c1.9-0.8,3.5-2,4.9-3.4c1.4-1.4,2.5-3.1,3.4-5C630,794.5,630.4,792.5,630.4,790.3z"/>
		<path d="M653.9,807.4c0,1.1-0.4,2-1.1,2.7c-0.7,0.7-1.6,1.1-2.6,1.1c-1,0-1.9-0.4-2.6-1.1c-0.7-0.7-1.1-1.6-1.1-2.6
			c0-1.1,0.4-2,1.1-2.7s1.6-1.1,2.6-1.1c1,0,1.9,0.4,2.6,1.1C653.5,805.5,653.9,806.3,653.9,807.4z"/>
		<path d="M673.4,808.3c0,1.4-0.5,2.9-1.6,4.4c-1,1.5-2.6,3-4.8,4.3l-2.6-2.6c1-0.7,1.8-1.3,2.4-1.8c0.6-0.5,1.1-1.1,1.5-1.6
			c-0.9-0.1-1.6-0.5-2.3-1.2c-0.6-0.7-1-1.5-1-2.4c0-1,0.4-1.9,1.1-2.7c0.7-0.8,1.7-1.1,2.8-1.1c1.5,0,2.6,0.5,3.3,1.5
			C673,806.1,673.4,807.2,673.4,808.3z"/>
		<path d="M712.1,810.5v-40.3h5.3v35.3h9.5v5H712.1z"/>
		<path d="M748.1,775.3v35.2h-5.3v-35.2h-9.7v-5.1h24.7v5.1H748.1z"/>
		<path d="M797.9,790.4c0,3.1-0.5,5.9-1.6,8.4c-1.1,2.5-2.5,4.6-4.4,6.3c-1.9,1.7-4.1,3.1-6.7,4c-2.6,0.9-5.4,1.4-8.4,1.4h-8.2
			v-40.3h8.2c3.1,0,5.9,0.5,8.5,1.4c2.6,0.9,4.8,2.3,6.7,4c1.9,1.7,3.3,3.9,4.4,6.4C797.4,784.5,797.9,787.3,797.9,790.4z
			 M792.5,790.4c0-2.3-0.4-4.4-1.2-6.3c-0.8-1.9-1.9-3.5-3.3-4.8c-1.4-1.3-3.1-2.3-5-3c-1.9-0.7-4.1-1.1-6.4-1.1h-2.8v30.2h2.8
			c2.3,0,4.4-0.4,6.4-1.1c2-0.7,3.6-1.7,5-3c1.4-1.3,2.5-2.9,3.3-4.7C792.2,794.8,792.5,792.7,792.5,790.4z"/>
		<path d="M815.7,807.4c0,1.1-0.4,2-1.1,2.7c-0.7,0.7-1.6,1.1-2.6,1.1c-1,0-1.9-0.4-2.6-1.1c-0.7-0.7-1.1-1.6-1.1-2.6
			c0-1.1,0.4-2,1.1-2.7c0.7-0.7,1.6-1.1,2.6-1.1c1,0,1.9,0.4,2.6,1.1C815.3,805.5,815.7,806.3,815.7,807.4z"/>
	</g>
	<g>
		<g>
			<linearGradient id="SVGID_1_" gradientUnits="userSpaceOnUse" x1="339.0034" y1="300.1844" x2="339.0034" y2="532.7226">
				<stop  offset="0" style="stop-color:#EC2024"/>
				<stop  offset="1" style="stop-color:#AA1E23"/>
			</linearGradient>
			<path class="st0" d="M424.3,470.1c0,11.7-2.4,22.3-7.3,31.9c-4.9,9.6-11.3,18-19.1,25c-7.9,7.1-17,12.6-27.4,16.5
				c-10.4,3.9-21,5.9-31.7,5.9c-38.7,0-67.1-23.8-85-71.3l41.1-18.9c7.6,18.3,14.9,30.6,22,36.9c7.1,6.3,14.7,9.4,22.9,9.4
				c5,0,9.8-1,14.4-3.1c4.6-2,8.6-4.7,12-8c3.5-3.3,6.2-7.2,8.3-11.6c2-4.4,3.1-9.1,3.1-14.2c0-3.8-1.3-7.2-3.8-10.4
				c-2.5-3.1-5.7-5.9-9.4-8.3c-3.8-2.4-7.7-4.6-11.8-6.6c-4.1-2-7.6-3.9-10.4-5.4c-8.2-4.1-16.5-8.2-24.8-12.3
				c-8.3-4.1-16-8.8-22.9-14.2c-6.9-5.4-12.6-11.8-17-19.4c-4.4-7.6-6.6-16.8-6.6-27.9c0-10.4,1.8-19.9,5.4-28.6
				c3.6-8.7,8.7-16.2,15.1-22.7c6.5-6.5,14.1-11.5,22.9-15.1c8.8-3.6,18.6-5.4,29.3-5.4c14.2,0,27.6,3.9,40.2,11.8
				c12.6,7.9,24.3,20.5,35,37.8l-35,28.3c-4.7-6.9-9-12.6-12.8-17c-3.8-4.4-7.2-7.9-10.4-10.4c-3.2-2.5-6.1-4.2-9-5
				c-2.8-0.8-5.8-1.2-9-1.2c-7.2,0-13.3,2.5-18.2,7.6c-4.9,5-7.3,11.5-7.3,19.4c0,3.5,1.1,6.5,3.3,9.2c2.2,2.7,5,5.1,8.3,7.3
				c3.3,2.2,6.8,4.1,10.4,5.7c3.6,1.6,6.7,3,9.2,4.3l42.5,22.2c10.4,6.6,18.6,14.6,24.6,23.9C421.3,445.6,424.3,456.8,424.3,470.1z"
				/>
		</g>
		<g>
			<linearGradient id="SVGID_2_" gradientUnits="userSpaceOnUse" x1="126.731" y1="426.8788" x2="878.451" y2="426.8788">
				<stop  offset="0" style="stop-color:#0D8543"/>
				<stop  offset="0.35" style="stop-color:#39AC4A"/>
				<stop  offset="0.7" style="stop-color:#80B941"/>
			</linearGradient>
			<path class="st1" d="M839.5,332.6C788.2,281.3,705,280.8,653,331c-0.6,0.5-1.1,1.1-1.7,1.6l-44.1,44.1l-0.4-0.4l-105-105
				c-41.5-41.5-96.7-64.4-155.4-64.4h-0.1c-58.6,0-113.8,22.9-155.3,64.4s-64.4,96.7-64.4,155.4c0,58.7,22.9,113.9,64.4,155.3
				c83.8,83.8,217.5,86.5,304.4,6.1l6.1-5.7l-49.9-50l-5.7,5.1c-27.3,24.6-62.6,38.1-99.5,38.1h-0.1c-39.7,0-77.1-15.5-105.3-43.7
				c-28.2-28.2-43.7-65.6-43.7-105.4c0-39.8,15.5-77.2,43.6-105.4c28.1-28.1,65.6-43.7,105.4-43.7c39.8,0,77.2,15.5,105.4,43.7
				l82.6,82.6c6.3,6.3,16.5,6.3,22.7,0l-94-94c-31.2-31.2-72.7-48.4-116.7-48.4c-44.1,0-85.6,17.2-116.7,48.4
				c-31.2,31.2-48.4,72.6-48.4,116.7c0,44.1,17.2,85.5,48.4,116.7c31.2,31.2,72.7,48.5,116.7,48.4c38.3,0,75.1-13.2,104.5-37.3
				l27.4,27.4c-38.1,32.5-85,48.7-131.8,48.7c-52.1,0-104.1-20-144-59.9c-38.5-38.4-59.7-89.5-59.7-144c0-54.4,21.2-105.5,59.7-144
				c38.5-38.5,89.6-59.7,143.9-59.7h0.1c54.4,0,105.5,21.2,144,59.7l94,94l11,11l11.8,11.8l11.4-11.4l44.1-44.1
				c0.8-0.8,1.7-1.6,2.5-2.4c45.8-43.1,118.2-42.3,163,2.4c22.1,22.1,34.2,51.5,34.2,82.8c0,31.3-12.1,60.6-34.3,82.7
				c-22.1,22.1-51.5,34.3-82.7,34.3c-31.2,0-60.6-12.2-82.7-34.3l-42.6-42.6l-0.4-0.4l0,0l-0.2-0.2l-11.2-11.2L597,466.5l-65.9,65.9
				l-65.9-65.9l28.4-28.4l37.5,37.5l53.8-53.8l0.2-0.2c5.7-6.3,5.5-16-0.6-22.1l-8.9,8.9v0l-26.1,26.1l-18.4,18.4l-37.5-37.5
				l-51.1,51.1l88.6,88.6l77.3-77.3l43,43c25.1,25.1,58.6,38.9,94.1,39c35.6,0,69-13.8,94.1-39c25.1-25.1,39-58.6,39-94.1
				C878.5,391.2,864.6,357.7,839.5,332.6z"/>
			<linearGradient id="SVGID_3_" gradientUnits="userSpaceOnUse" x1="619.601" y1="427.8671" x2="824.9676" y2="427.8671">
				<stop  offset="0" style="stop-color:#0D8543"/>
				<stop  offset="0.35" style="stop-color:#39AC4A"/>
				<stop  offset="0.7" style="stop-color:#80B941"/>
			</linearGradient>
			<path class="st2" d="M793.9,365.3c-10.7-8.2-23.5-13.5-36.9-15.2c-22.6-2.9-44.5,3.7-61.3,18c-1.6,1.4-3.2,2.8-4.7,4.3L647,416.5
				l0,0l-17,17l0,0l-10.3,10.2l0.1,0.1c0,0,0,0,0,0c6.3,6.2,16.4,6.3,22.6,0.1l4.7-4.6l0.4,0.4l43.7,43.7c14.8,14.8,34.5,23,55.5,23
				c24.5,0,47.2-11.1,62.5-31c8.2-10.7,13.5-23.5,15.3-36.9C828,410,816.7,382.8,793.9,365.3z M790.6,472
				c-11.8,11.8-27.4,18.3-44.1,18.3c-16.7,0-32.3-6.5-44.1-18.3l-43.7-43.7l-0.4-0.4l44.1-44.1c1.8-1.8,3.6-3.4,5.6-5
				c10.9-8.6,24.4-13.3,38.5-13.3c16.7,0,32.3,6.5,44.1,18.3c11.8,11.8,18.3,27.4,18.3,44.1C808.9,444.5,802.4,460.2,790.6,472z"/>
		</g>
		<g>
			<linearGradient id="SVGID_4_" gradientUnits="userSpaceOnUse" x1="624.766" y1="432.4811" x2="624.766" y2="444.7895">
				<stop  offset="0" style="stop-color:#EC2024"/>
				<stop  offset="1" style="stop-color:#AA1E23"/>
			</linearGradient>
			<path class="st3" d="M629.9,433.5L629.9,433.5l-10.2,10.3c0,0,0,0,0,0l-0.1-0.1L629.9,433.5z"/>
			<linearGradient id="SVGID_5_" gradientUnits="userSpaceOnUse" x1="574.891" y1="335.3686" x2="574.891" y2="550.2085">
				<stop  offset="0" style="stop-color:#EC2024"/>
				<stop  offset="1" style="stop-color:#AA1E23"/>
			</linearGradient>
			<path class="st4" d="M708,378.8l-12.3-10.7l-30.5-26.5L653,331l-0.4-0.4l-45.7,45.7l-11.4,11.4l-64.4,64.4l-37.5-37.5l-51.9,51.9
				l89.4,89.4l77.6-77.6l11.4-11.4L708,378.8L708,378.8z M607.2,399.4l11.4-11.4l34.8-34.8l30.4,26.4L647,416.5l-17,17l0,0
				l-10.3,10.2l0.1,0.1c0,0,0,0,0,0l-11.4,11.4L597,466.5l-65.9,65.9l-65.9-65.9l28.4-28.4l37.5,37.5l53.8-53.8l0.2-0.2L607.2,399.4
				z"/>
		</g>
		<path class="st5" d="M629.9,433.5L629.9,433.5l-10.2,10.3c0,0,0,0,0,0l-0.1-0.1L629.9,433.5z"/>
	</g>
	<g>
		<linearGradient id="SVGID_6_" gradientUnits="userSpaceOnUse" x1="398.2548" y1="575.5142" x2="865.9975" y2="575.5142">
			<stop  offset="0" style="stop-color:#0D8543"/>
			<stop  offset="0.35" style="stop-color:#39AC4A"/>
			<stop  offset="0.7" style="stop-color:#80B941"/>
		</linearGradient>
		<circle class="st6" cx="601.7" cy="575.5" r="37.7"/>
		<linearGradient id="SVGID_7_" gradientUnits="userSpaceOnUse" x1="398.2527" y1="602.1329" x2="865.9988" y2="602.1329">
			<stop  offset="0" style="stop-color:#0D8543"/>
			<stop  offset="0.35" style="stop-color:#39AC4A"/>
			<stop  offset="0.7" style="stop-color:#80B941"/>
		</linearGradient>
		<path class="st7" d="M717.4,602.1c0,13.4-10.8,24.2-24.2,24.2c-13.4,0-24.2-10.8-24.2-24.2s10.8-24.2,24.2-24.2
			C706.6,577.9,717.4,588.8,717.4,602.1z"/>
		<linearGradient id="SVGID_8_" gradientUnits="userSpaceOnUse" x1="398.2529" y1="605.901" x2="865.9998" y2="605.901">
			<stop  offset="0" style="stop-color:#0D8543"/>
			<stop  offset="0.35" style="stop-color:#39AC4A"/>
			<stop  offset="0.7" style="stop-color:#80B941"/>
		</linearGradient>
		<path class="st8" d="M782.8,605.9c0,7.8-6.3,14.1-14.1,14.1c-7.8,0-14.1-6.3-14.1-14.1c0-7.8,6.3-14.1,14.1-14.1
			C776.5,591.8,782.8,598.1,782.8,605.9z"/>
	</g>
</g>
</svg>
